<svg width="28" height="28" viewBox="0 0 28 28" fill="none" xmlns="http://www.w3.org/2000/svg">
<path d="M20.9999 23.3334H4.66659V7.00002H15.1666V4.66669H4.66659C3.38325 4.66669 2.33325 5.71669 2.33325 7.00002V23.3334C2.33325 24.6167 3.38325 25.6667 4.66659 25.6667H20.9999C22.2833 25.6667 23.3333 24.6167 23.3333 23.3334V12.8334H20.9999V23.3334ZM11.9116 19.635L9.62492 16.8817L6.41659 21H19.2499L15.1199 15.505L11.9116 19.635ZM23.3333 4.66669V1.16669H20.9999V4.66669H17.4999C17.5116 4.67835 17.4999 7.00002 17.4999 7.00002H20.9999V10.4884C21.0116 10.5 23.3333 10.4884 23.3333 10.4884V7.00002H26.8333V4.66669H23.3333Z" fill="black"/>
</svg>
