<svg width="183" height="183" viewBox="0 0 183 183" fill="none" xmlns="http://www.w3.org/2000/svg">
<path d="M115.677 74.5026C81.0981 39.9249 47.3977 17.5632 40.405 24.5575C33.4108 31.5517 55.7724 65.252 90.3501 99.8298C124.928 134.408 158.628 156.769 165.622 149.775C172.617 142.782 150.255 109.082 115.677 74.5026Z" fill="#FAFBFC"/>
<path d="M117.871 72.3091C71.0361 25.4728 22.8414 -2.26719 10.2246 10.3496C-2.39078 22.965 25.3492 71.1612 72.184 117.996C119.019 164.831 167.215 192.571 179.83 179.956C192.447 167.339 164.707 119.144 117.871 72.3091ZM165.623 149.775C158.63 156.769 124.928 134.408 90.3503 99.8298C55.7725 65.2505 33.4109 31.5502 40.4051 24.5574C47.3979 17.5632 81.0997 39.9248 115.677 74.5026C150.255 109.08 172.617 142.781 165.623 149.775Z" fill="url(#paint0_linear)"/>
<path d="M158.916 95.1517C158.916 130.437 130.312 159.041 95.0282 159.041C59.7426 159.041 31.1384 130.437 31.1384 95.1517C31.1384 59.8677 59.7426 31.2635 95.0282 31.2635C130.312 31.2635 158.916 59.8677 158.916 95.1517Z" fill="url(#paint1_linear)"/>
<path d="M72.1839 117.996C91.7627 137.575 111.545 153.747 128.901 165.098L147.842 146.159C133.222 138.274 111.957 121.437 90.3502 99.8298C68.7431 78.2213 51.9061 56.9579 44.0213 42.3377L25.0815 61.279C36.4334 78.6351 52.6051 98.4172 72.1839 117.996Z" fill="url(#paint2_linear)"/>
<path d="M31.9441 95.8339C31.9441 100.244 28.3688 103.82 23.9584 103.82C19.5481 103.82 15.9728 100.244 15.9728 95.8339C15.9728 91.4236 19.5481 87.8468 23.9584 87.8468C28.3688 87.8468 31.9441 91.4236 31.9441 95.8339Z" fill="#DFECF5"/>
<path d="M143.751 7.98567C143.751 12.396 140.175 15.9713 135.765 15.9713C131.353 15.9713 127.778 12.396 127.778 7.98567C127.778 3.57534 131.353 0 135.765 0C140.175 0 143.751 3.57534 143.751 7.98567Z" fill="#DFECF5"/>
<path d="M175.695 51.909C175.695 54.1157 173.908 55.9026 171.703 55.9026C169.496 55.9026 167.709 54.1157 167.709 51.909C167.709 49.7039 169.496 47.9169 171.703 47.9169C173.908 47.9169 175.695 49.7039 175.695 51.909Z" fill="#DFECF5"/>
<path d="M7.98567 147.743C7.98567 149.949 6.19873 151.736 3.99357 151.736C1.78694 151.736 0 149.949 0 147.743C0 145.538 1.78694 143.751 3.99357 143.751C6.19873 143.751 7.98567 145.538 7.98567 147.743Z" fill="#DFECF5"/>
<path d="M79.861 171.701C79.861 173.908 78.0741 175.695 75.8689 175.695C73.6623 175.695 71.8754 173.908 71.8754 171.701C71.8754 169.496 73.6623 167.709 75.8689 167.709C78.0741 167.709 79.861 169.496 79.861 171.701Z" fill="#DFECF5"/>
<path d="M159.723 111.805C159.723 116.217 156.147 119.792 151.736 119.792C147.326 119.792 143.751 116.217 143.751 111.805C143.751 107.395 147.326 103.82 151.736 103.82C156.147 103.82 159.723 107.395 159.723 111.805Z" fill="#DFECF5"/>
<path d="M31.9442 3.9921C31.9442 6.19873 30.1572 7.98567 27.9521 7.98567C25.7454 7.98567 23.9585 6.19873 23.9585 3.9921C23.9585 1.78694 25.7454 0 27.9521 0C30.1572 0 31.9442 1.78694 31.9442 3.9921Z" fill="#DFECF5"/>
<defs>
<linearGradient id="paint0_linear" x1="40.2721" y1="64.9328" x2="130.337" y2="134.626" gradientUnits="userSpaceOnUse">
<stop stop-color="#6B75CE"/>
<stop offset="1" stop-color="#564B93"/>
</linearGradient>
<linearGradient id="paint1_linear" x1="10.2503" y1="26.3333" x2="128.193" y2="168.937" gradientUnits="userSpaceOnUse">
<stop stop-color="#E8B7E5"/>
<stop offset="1" stop-color="#9B8CF8"/>
</linearGradient>
<linearGradient id="paint2_linear" x1="48.2033" y1="82.6033" x2="111.133" y2="131.299" gradientUnits="userSpaceOnUse">
<stop stop-color="#6B75CE"/>
<stop offset="1" stop-color="#564B93"/>
</linearGradient>
</defs>
</svg>
